<svg xmlns="http://www.w3.org/2000/svg" width="3000px" height="260px"
     viewBox="0 0 2998 260" version="1.1">
    <g id="surface1">
        <path style=" stroke:none;fill-rule:evenodd;fill:rgb(12.54902%,87.45098%,49.803922%);fill-opacity:0.8;"
              d="M 0 0 L 124.136719 9.769531 C 250.613281 19.539062 498.886719 39.074219 749.5 72.140625 C 1000.113281 105.953125 1248.386719 154.046875 1499 163.816406 C 1749.613281 173.582031 1997.886719 144.277344 2248.5 135.261719 C 2499.113281 125.492188 2747.386719 135.261719 2873.863281 139.769531 L 2998 144.277344 L 2998 260 L 2873.863281 260 C 2747.386719 260 2499.113281 260 2248.5 260 C 1997.886719 260 1749.613281 260 1499 260 C 1248.386719 260 1000.113281 260 749.5 260 C 498.886719 260 250.613281 260 124.136719 260 L 0 260 Z M 0 0 "/>
        <path style=" stroke:none;fill-rule:evenodd;fill:rgb(13.333333%,28.627451%,34.117647%);fill-opacity:0.8;"
              d="M 0 104 L 99.933594 124.800781 C 199.867188 145.601562 399.734375 187.199219 599.601562 176.800781 C 799.464844 166.398438 999.335938 104 1199.199219 62.398438 C 1399.066406 20.800781 1598.933594 0 1798.800781 0 C 1998.664062 0 2198.535156 20.800781 2398.398438 57.199219 C 2598.257812 93.601562 2798.140625 145.601562 2898.058594 171.601562 L 2998 197.601562 L 2998 260 L 2898.058594 260 C 2798.140625 260 2598.257812 260 2398.398438 260 C 2198.535156 260 1998.664062 260 1798.800781 260 C 1598.933594 260 1399.066406 260 1199.199219 260 C 999.335938 260 799.464844 260 599.601562 260 C 399.734375 260 199.867188 260 99.933594 260 L 0 260 Z M 0 104 "/>
    </g>
</svg>